<?xml version="1.0" encoding="utf-8"?>
<!-- Generator: Adobe Illustrator 21.1.0, SVG Export Plug-In . SVG Version: 6.00 Build 0)  -->
<svg version="1.1" id="Layer_1" xmlns="http://www.w3.org/2000/svg" xmlns:xlink="http://www.w3.org/1999/xlink" x="0px" y="0px"
	 viewBox="0 0 474.3 474.3" style="enable-background:new 0 0 474.3 474.3;" xml:space="preserve">
<style type="text/css">
	.st0{opacity:0.1;fill:#FFFFFF;}
	.st1{fill:#FFFFFF;}
</style>
<circle class="st0" cx="237.1" cy="237" r="237"/>
<path class="st1" d="M195.7,148.9c0,7.3,0,39.7,0,39.7h-29.1v48.6h29.1v144.4h59.8V237.3h40.1c0,0,3.8-23.3,5.6-48.8
	c-5.2,0-45.5,0-45.5,0s0-28.3,0-33.2c0-5,6.5-11.6,13-11.6c6.4,0,20,0,32.6,0c0-6.6,0-29.5,0-50.6c-16.8,0-35.9,0-44.3,0
	C194.2,93,195.7,141.7,195.7,148.9z"/>
</svg>
