<?xml version="1.0" encoding="utf-8"?>
<!-- Generator: Adobe Illustrator 21.1.0, SVG Export Plug-In . SVG Version: 6.00 Build 0)  -->
<svg version="1.1" id="Layer_1" xmlns="http://www.w3.org/2000/svg" xmlns:xlink="http://www.w3.org/1999/xlink" x="0px" y="0px"
	 viewBox="0 0 475.1 475.1" style="enable-background:new 0 0 475.1 475.1;" xml:space="preserve">
<style type="text/css">
	.st0{opacity:0.1;fill:#FFFFFF;enable-background:new    ;}
	.st1{display:none;fill:url(#shape_3_1_);}
	.st2{fill:#FFFFFF;}
</style>
<circle class="st0" cx="237" cy="237" r="237"/>
<linearGradient id="shape_3_1_" gradientUnits="userSpaceOnUse" x1="238.15" y1="493.8" x2="238.15" y2="216" gradientTransform="matrix(1 0 0 1 0 -122)">
	<stop  offset="0" style="stop-color:#20B038"/>
	<stop  offset="1" style="stop-color:#60D66A"/>
</linearGradient>
<path id="shape_3" class="st1" d="M99.9,371.8l19.5-71.3c-12.1-20.9-18.4-44.6-18.4-68.8C101,155.8,162.8,94,238.7,94
	c36.8,0,71.4,14.4,97.4,40.4s40.3,60.6,40.3,97.4c0,75.9-61.8,137.7-137.7,137.7l0,0h-0.1c-23,0-45.7-5.8-65.8-16.8L99.9,371.8z"/>
<g>
	<path class="st2" d="M337.1,138c6.7,0,12.5,2.5,17.3,7.5c4.8,5,7.1,10.9,7.1,17.6v149c0,6.7-2.3,12.6-7.1,17.6
		c-4.8,5-10.6,7.5-17.3,7.5H138c-6.7,0-12.5-2.5-17.3-7.5c-4.8-5-7.1-10.9-7.1-17.6V163c0-6.7,2.3-12.6,7.1-17.6
		c4.8-5,10.6-7.5,17.3-7.5L337.1,138L337.1,138z M337.1,188.1V163l-99.6,62.3L138,163v25.1l99.6,61.7L337.1,188.1z"/>
</g>
</svg>
