<?xml version="1.0" encoding="utf-8"?>
<!-- Generator: Adobe Illustrator 21.1.0, SVG Export Plug-In . SVG Version: 6.00 Build 0)  -->
<svg version="1.1" id="Layer_1" xmlns="http://www.w3.org/2000/svg" xmlns:xlink="http://www.w3.org/1999/xlink" x="0px" y="0px"
	 viewBox="0 0 475.1 475.1" style="enable-background:new 0 0 475.1 475.1;" xml:space="preserve">
<style type="text/css">
	.st0{opacity:0.1;fill:#FFFFFF;}
	.st1{display:none;fill:url(#shape_3_1_);}
	.st2{fill:#FFFFFF;}
</style>
<circle class="st0" cx="237" cy="237" r="237"/>
<linearGradient id="shape_3_1_" gradientUnits="userSpaceOnUse" x1="238.15" y1="106.2" x2="238.15" y2="384" gradientTransform="matrix(1 0 0 -1 0 478)">
	<stop  offset="0" style="stop-color:#20B038"/>
	<stop  offset="1" style="stop-color:#60D66A"/>
</linearGradient>
<path id="shape_3" class="st1" d="M99.9,371.8l19.5-71.3c-12.1-20.9-18.4-44.6-18.4-68.8C101,155.8,162.8,94,238.7,94
	c36.8,0,71.4,14.4,97.4,40.4s40.3,60.6,40.3,97.4c0,75.9-61.8,137.7-137.7,137.7l0,0h-0.1c-23,0-45.7-5.8-65.8-16.8L99.9,371.8z"/>
<g>
	<path class="st2" d="M165.5,221.8c9.7,18.6,22.1,35.5,37.2,50.5c15,15,31.9,27.4,50.5,37.2l29.2-29.2c1.7-1.9,3.8-3.2,6.4-3.8
		s5-0.4,7.3,0.6c14,4.9,29.6,7.3,47,7.3c3.6,0,6.7,1.3,9.2,3.8s3.8,5.6,3.8,9.2v46.7c0,3.6-1.3,6.7-3.8,9.2s-5.6,3.8-9.2,3.8
		c-30.5,0-59.7-5.9-87.7-17.8c-26.9-11.4-50.7-27.5-71.5-48.3c-20.8-20.7-36.8-44.6-48.3-71.5c-11.9-27.9-17.8-57.2-17.8-87.7
		c0-3.6,1.3-6.7,3.8-9.2c2.5-2.5,5.6-3.8,9.2-3.8h46.7c3.6,0,6.7,1.3,9.2,3.8c2.5,2.5,3.8,5.6,3.8,9.2c0,17.4,2.4,33,7.3,47
		c0.6,2.3,0.7,4.8,0.3,7.3c-0.4,2.5-1.6,4.7-3.5,6.4L165.5,221.8z"/>
</g>
</svg>
