<?xml version="1.0" encoding="utf-8"?>
<!-- Generator: Adobe Illustrator 21.1.0, SVG Export Plug-In . SVG Version: 6.00 Build 0)  -->
<svg version="1.1" id="Layer_1" xmlns="http://www.w3.org/2000/svg" xmlns:xlink="http://www.w3.org/1999/xlink" x="0px" y="0px"
	 viewBox="0 0 473.9 473.9" style="enable-background:new 0 0 473.9 473.9;" xml:space="preserve">
<style type="text/css">
	.st0{opacity:0.1;fill:#FFFFFF;}
	.st1{fill:#FFFFFF;}
</style>
<circle class="st0" cx="237" cy="237" r="237"/>
<path class="st1" d="M321.7,291.9h-15.3l0.1-8.9c0-3.9,3.2-7.2,7.2-7.2h1c4,0,7.2,3.2,7.2,7.2L321.7,291.9z M264.4,272.9
	c-3.9,0-7,2.6-7,5.8v43.2c0,3.2,3.2,5.8,7,5.8c3.9,0,7.1-2.6,7.1-5.8v-43.2C271.5,275.5,268.3,272.9,264.4,272.9z M357.5,248.8v82.1
	c0,19.7-17.1,35.8-38,35.8H163.4c-20.9,0-38-16.1-38-35.8v-82.1c0-19.7,17.1-35.8,38-35.8h156.1
	C340.4,212.9,357.5,229.1,357.5,248.8z M173.9,339.8l0-86.5l19.3,0v-12.8l-51.6-0.1V253l16.1,0v86.7L173.9,339.8L173.9,339.8z
	 M231.8,266.2h-16.1v46.2c0,6.7,0.4,10,0,11.2c-1.3,3.6-7.2,7.4-9.5,0.4c-0.4-1.2,0-4.9-0.1-11.3l-0.1-46.5h-16l0.1,45.8
	c0,7-0.2,12.2,0.1,14.6c0.4,4.2,0.2,9.1,4.1,11.9c7.3,5.2,21.2-0.8,24.6-8.3l0,9.5l12.9,0L231.8,266.2L231.8,266.2z M283.5,319.1
	l0-38.4c0-14.7-11-23.4-25.9-11.6l0.1-28.6l-16.1,0l-0.1,98.6l13.2-0.2l1.2-6.1C272.8,348.3,283.5,337.7,283.5,319.1z M333.9,314
	l-12.1,0.1c0,0.5,0,1,0,1.6v6.8c0,3.6-3,6.6-6.6,6.6h-2.4c-3.6,0-6.6-2.9-6.6-6.6v-0.7v-7.4v-9.6h27.7v-10.4
	c0-7.6-0.2-15.2-0.8-19.6c-2-13.8-21.3-16-31.1-8.9c-3.1,2.2-5.4,5.2-6.8,9.1c-1.4,4-2.1,9.4-2.1,16.2V314
	C293.2,352.1,339.5,346.7,333.9,314z M271.9,189.5c0.8,2,2.1,3.7,3.9,4.9c1.7,1.2,3.9,1.8,6.6,1.8c2.3,0,4.4-0.6,6.2-1.9
	c1.8-1.3,3.3-3.2,4.5-5.8l-0.3,6.3h18v-76.5h-14.2v59.5c0,3.2-2.7,5.9-5.9,5.9c-3.2,0-5.9-2.6-5.9-5.9v-59.5H270V170
	c0,6.6,0.1,11,0.3,13.2C270.6,185.4,271.1,187.5,271.9,189.5z M217.4,146.3c0-7.3,0.6-13.1,1.8-17.2c1.2-4.1,3.4-7.4,6.6-9.9
	c3.2-2.5,7.3-3.8,12.2-3.8c4.2,0,7.7,0.8,10.7,2.4c3,1.6,5.3,3.7,6.9,6.3c1.6,2.6,2.7,5.2,3.3,8c0.6,2.8,0.9,6.9,0.9,12.5V164
	c0,7.1-0.3,12.3-0.8,15.6c-0.5,3.3-1.7,6.4-3.5,9.3c-1.8,2.9-4.1,5-6.9,6.4c-2.8,1.4-6.1,2.1-9.8,2.1c-4.1,0-7.6-0.6-10.4-1.8
	c-2.9-1.2-5.1-2.9-6.6-5.3c-1.6-2.4-2.7-5.2-3.4-8.6c-0.7-3.3-1-8.4-1-15.1L217.4,146.3L217.4,146.3z M231.5,176.7
	c0,4.3,3.2,7.9,7.2,7.9s7.1-3.5,7.1-7.9V136c0-4.3-3.2-7.9-7.1-7.9s-7.2,3.5-7.2,7.9V176.7z M181.7,197.3h17l0-58.6l20-50.2h-18.6
	l-10.7,37.3l-10.8-37.4h-18.4l21.3,50.4L181.7,197.3z"/>
</svg>
